# AST/ASF file generated using VICON BodyLanguage
# -----------------------------------------------
:version 1.10
:name VICON
:units
  mass 1.0
  length 0.45
  angle deg
:documentation
   .ast/.asf automatically generated from VICON data using
   VICON BodyBuilder and BodyLanguage model FoxedUp or BRILLIANT.MOD
:root
   order TX TY TZ RX RY RZ
   axis XYZ
   position 0 0 0  
   orientation 0 0 0 
:bonedata
  begin
     id 1 
     name lhipjoint
     direction 0.822369 -0.411937 0.392449 
     length 3.8167 
     axis 0 0 0  XYZ
  end
  begin
     id 2 
     name lfemur
     direction 0.34202 -0.939693 0  
     length 6.16791  
     axis 0 0 20  XYZ
    dof rx ry rz
    limits (-160.0 20.0)
           (-70.0 70.0)
           (-60.0 70.0)
  end
  begin
     id 3 
     name ltibia
     direction 0.34202 -0.939693 0   
     length 7.07101   
     axis 0 0 20   XYZ
    dof rx
    limits (-10.0 170.0)
  end
  begin
     id 4 
     name lfoot
     direction 0.028254 -0.0776273 0.996582   
     length 1.66799   
     axis -90 7.62852e-016 20   XYZ
    dof rx rz
    limits (-45.0 90.0)
           (-70.0 20.0)
  end
  begin
     id 5 
     name ltoes
     direction 1.53483e-011 -4.21688e-011 1   
     length 0.851674   
     axis -90 7.62852e-016 20   XYZ
    dof rx
    limits (-90.0 20.0)
  end
  begin
     id 6 
     name rhipjoint
     direction -0.822466 -0.411836 0.392353   
     length 3.81764  
     axis 0 0 0  XYZ 
  end
  begin
     id 7 
     name rfemur
     direction -0.34202 -0.939693 0   
     length 6.28636   
     axis 0 0 -20   XYZ
    dof rx ry rz
    limits (-160.0 20.0)
           (-70.0 70.0)
           (-70.0 60.0)
  end
  begin
     id 8 
     name rtibia
     direction -0.34202 -0.939693 0   
     length 6.85621   
     axis 0 0 -20   XYZ
    dof rx
    limits (-10.0 170.0)
 end
 begin
     id 9 
     name rfoot
     direction -0.0553036 -0.151945 0.98684   
     length 1.57293  
     axis -90 -7.62852e-016 -20   XYZ
    dof rx rz
    limits (-45.0 90.0)
           (-20.0 70.0)
  end
  begin
     id 10 
     name rtoes
     direction -1.53592e-011 -4.21964e-011 1   
     length 0.802812   
     axis -90 -7.62852e-016 -20   XYZ
    dof rx
    limits (-90.0 20.0)
  end
  begin
     id 11 
     name lowerback
     direction 0.00654913 0.996475 -0.0836396   
     length 1.97212   
     axis 0 0 0   XYZ
    dof rx ry rz
    limits (-20.0 45.0)
           (-30.0 30.0)
           (-30.0 30.0)
  end
  begin
     id 12 
     name upperback
     direction 0.0111875 0.994527 0.103877   
     length 1.89704   
     axis 0 0 0   XYZ
    dof rx ry rz
    limits (-20.0 45.0)
           (-30.0 30.0)
           (-30.0 30.0)
  end
  begin
     id 13 
     name thorax
     direction 0.00473652 0.989004 0.147814   
     length 1.94516   
     axis 0 0 0   XYZ
    dof rx ry rz
    limits (-20.0 45.0)
           (-30.0 30.0)
           (-30.0 30.0)
  end
  begin
     id 14 
     name lowerneck
     direction -0.00925808 0.999011 0.0434791   
     length 1.81771   
     axis 0 0 0   XYZ
    dof rx ry rz
    limits (-20.0 45.0)
           (-30.0 30.0)
           (-30.0 30.0)
  end
  begin
     id 15 
     name upperneck
     direction 0.00451595 0.964412 -0.264365   
     length 1.80434   
     axis 0 0 0   XYZ
    dof rx ry rz
    limits (-20.0 45.0)
           (-30.0 30.0)
           (-30.0 30.0)
  end
  begin
     id 16
     name head
     direction -0.00110849 0.995756 -0.0920241  
     length 1.84006  
     axis 0 0 0   XYZ
    dof rx ry rz
    limits (-20.0 45.0)
           (-30.0 30.0)
           (-30.0 30.0)
  end
  begin
     id 17 
     name lclavicle
     direction 0.921253 0.385213 0.0538957  
     length 3.67415  
     axis 0 0 0   XYZ
    dof ry rz
    limits (-20.0 10.0)
           (0.0 20.0)
  end
  begin
     id 18 
     name lhumerus
     direction 1 -4.48961e-011 6.73441e-028   
     length 4.32712   
     axis 180 -30 -90   XYZ
    dof rx ry rz
    limits (-60.0 90.0)
           (-90.0 90.0)
           (-90.0 90.0)
  end
  begin
     id 19
     name lradius
     direction 1 -4.48985e-011 -9.53507e-028   
     length 3.28587   
     axis 180 -30 -90   XYZ
    dof rx
    limits (-10.0 170.0)
  end
  begin
     id 20
     name lwrist
     direction 1 -4.48951e-011 -4.67472e-027   
     length 1.64293   
     axis 1.65735e-015 90 90   XYZ
    dof ry
    limits (-180.0 0.0)
 end
  begin
     id 21 
     name lhand
     direction 1 -4.48946e-011 -9.34945e-027   
     length 0.433158   
     axis 5.96574e-015 90 90   XYZ
    dof rx rz
    limits (-90.0 90.0)
           (-45.0 45.0)
  end
  begin
     id 22 
     name lfingers
     direction 1 -4.48882e-011 -1.86989e-026   
     length 0.349224   
     axis 1.19315e-014 90 90   XYZ
    dof rx
    limits (0.0 90.0)
  end
  begin
     id 23
     name lthumb
     direction 0.707107 -6.3493e-011 0.707107   
     length 0.501417   
     axis -90 45 2.85299e-015   XYZ
    dof rx rz
    limits (-45.0 45.0)
           (-45.0 45.0)
  end
  begin
     id 24 
     name rclavicle
     direction -0.884378 0.46502 -0.0403866   
     length 3.50218  
     axis 0 0 0   XYZ 
    dof ry rz
    limits (-10.0 20.0)
           (-20.0 0.0)
  end
  begin
     id 25 
     name rhumerus
     direction -1 -4.48964e-011 1.58188e-027  
     length 4.29104   
     axis 180 30 90   XYZ
    dof rx ry rz
    limits (-90.0 60.0)
           (-90.0 90.0)
           (-90.0 90.0)
  end
  begin
     id 26 
     name rradius
     direction -1 -4.48978e-011 -1.9722e-027   
     length 3.2272   
     axis 180 30 90   XYZ
    dof rx
    limits (-10.0 170.0)
  end
  begin
     id 27 
     name rwrist
     direction -1 -4.48969e-011 -4.67472e-027   
     length 1.6136   
     axis 1.65735e-015 -90 -90   XYZ
    dof ry
    limits (-180.0 0.0)
  end
  begin
     id 28
     name rhand
     direction -1 -4.48846e-011 -9.34945e-027   
     length 0.543623   
     axis 5.96574e-015 -90 -90   XYZ
    dof rx rz
    limits (-90.0 90.0)
           (-45.0 45.0)
  end
  begin
     id 29
     name rfingers
     direction -1 -4.49074e-011 -1.86989e-026   
     length 0.438283   
     axis 1.19315e-014 -90 -90   XYZ
    dof rx
    limits (0.0 90.0)
  end
  begin
     id 30
     name rthumb
     direction -0.707107 -6.34834e-011 0.707107   
     length 0.629289   
     axis -90 -45 -2.85299e-015   XYZ
    dof rx rz
    limits (-45.0 45.0)
           (-45.0 45.0)
  end
:hierarchy
  begin
    root lhipjoint rhipjoint lowerback
    lhipjoint lfemur
    lfemur ltibia
    ltibia lfoot
    lfoot ltoes
    rhipjoint rfemur
    rfemur rtibia
    rtibia rfoot
    rfoot rtoes
    lowerback upperback
    upperback thorax
    thorax lowerneck lclavicle rclavicle
    lowerneck upperneck
    upperneck head
    lclavicle lhumerus
    lhumerus lradius
    lradius lwrist
    lwrist lhand lthumb
    lhand lfingers
    rclavicle rhumerus
    rhumerus rradius
    rradius rwrist
    rwrist rhand rthumb
    rhand rfingers
  end

#!OML:ASF H:\GeneralSubjects\Female5\Project 1\Capture day 1\Session 1\Female5.ASF
:FULLY-SPECIFIED
:DEGREES
1
root 3.11305 15.9776 5.47616 -169.141 -50.8482 178.37
lowerback 6.92346 2.83853 -0.346315
upperback -9.87279 3.25066 -1.31713
thorax -14.7203 1.29713 -1.85617
lowerneck -20.6985 3.87685 4.93285
upperneck 39.7575 1.68555 0.588095
head 18.591 0.841037 -0.461188
rclavicle -7.57867e-015 2.40529e-014
rhumerus -49.638 10.842 -81.2558
rradius 33.8515
rwrist -7.65232
rhand -32.553 -29.6935
rfingers 7.12502
rthumb -5.78262 -59.5946
lclavicle -7.57867e-015 2.40529e-014
lhumerus -39.8491 -4.43084 79.8015
lradius 37.6931
lwrist -6.49069
lhand -37.3848 45.7087
lfingers 7.12502
lthumb -10.4459 75.4292
rfemur -6.97284 17.3081 12.4718
rtibia 5.74062
rfoot -24.462 -16.6855
rtoes 5.59415
lfemur 1.71462 -41.1052 -32.8027
ltibia -4.94355
lfoot -43.9466 7.61383
ltoes -17.5396
2
root 3.11488 15.977 5.47063 -169.436 -50.5345 178.712
lowerback 7.18596 2.90723 -0.135563
upperback -9.9401 3.37514 -1.28915
thorax -14.9558 1.32851 -1.98463
lowerneck -20.4909 3.81533 4.60818
upperneck 39.2586 1.56944 1.13472
head 18.2248 0.839237 -0.168787
rclavicle -6.4605e-015 3.73715e-014
rhumerus -49.2993 11.6447 -81.8566
rradius 34.7034
rwrist -7.92569
rhand -31.1095 -27.6487
rfingers 7.12502
rthumb -4.38886 -57.5833
lclavicle -6.4605e-015 3.73715e-014
lhumerus -40.7198 -3.74912 79.0617
lradius 37.5082
lwrist -6.83731
lhand -36.2314 45.1998
lfingers 7.12502
lthumb -9.33306 74.9732
rfemur -7.12586 17.2996 12.7262
rtibia 5.84159
rfoot -24.1177 -16.7349
rtoes 6.28996
lfemur 1.83514 -41.1291 -32.6122
ltibia -4.91038
lfoot -44.4538 8.0301
ltoes -18.5706
3
root 3.1276 15.9788 5.47775 -169.672 -49.2358 178.985
lowerback 7.51818 3.32659 -0.184227
upperback -9.94687 3.94324 -1.30158
thorax -15.1664 1.59546 -2.10675
lowerneck -20.3111 3.73086 4.31531
upperneck 38.6063 1.44211 1.65396
head 17.7901 0.841219 0.0980087
rclavicle -2.21148e-014 1.78906e-015
rhumerus -48.7355 12.3244 -82.3841
rradius 35.4832
rwrist -7.9709
rhand -29.8699 -26.1394
rfingers 7.12502
rthumb -3.19182 -56.0953
lclavicle -2.21148e-014 1.78906e-015
lhumerus -41.2854 -3.05231 78.2337
lradius 37.154
lwrist -7.15763
lhand -34.5999 43.6403
lfingers 7.12502
lthumb -7.75865 73.4779
rfemur -8.27009 17.0073 12.6756
rtibia 6.82704
rfoot -22.9673 -15.9492
rtoes 6.53107
lfemur 2.35102 -42.412 -32.8755
ltibia -4.86842
lfoot -47.1171 8.15551
ltoes -18.1932
4
root 3.12563 15.9796 5.47327 -169.52 -48.8168 178.854
lowerback 7.486 3.47335 -0.234935
upperback -9.93345 4.1248 -1.3912
thorax -15.1214 1.68031 -2.2119
lowerneck -20.0927 3.63432 4.02057
upperneck 37.9519 1.30712 2.15235
head 17.3584 0.835237 0.346222
rclavicle -3.98066e-014 6.36111e-015
rhumerus -48.3404 13.1547 -83.1283
rradius 36.431
rwrist -8.03445
rhand -28.8825 -25.7172
rfingers 7.12502
rthumb -2.23827 -55.6852
lclavicle -3.98066e-014 6.36111e-015
lhumerus -41.8815 -2.61802 77.4665
lradius 36.9989
lwrist -7.08416
lhand -32.9049 42.6891
lfingers 7.12502
lthumb -6.12242 72.5806
rfemur -8.58155 16.895 12.4918
rtibia 6.99893
rfoot -22.5432 -15.5217
rtoes 5.73056
lfemur 2.47219 -42.913 -33.0941
ltibia -4.76737
lfoot -47.9963 7.98141
ltoes -17.631
5
root 3.1204 15.9818 5.47408 -169.446 -48.4455 178.792
lowerback 7.54648 3.61969 -0.0857463
upperback -9.92915 4.33134 -1.51969
thorax -15.1259 1.75067 -2.48289
lowerneck -19.8956 3.45066 3.77222
upperneck 37.2993 1.10936 2.43411
head 16.9477 0.777568 0.47067
rclavicle -5.50634e-014 3.97569e-015
rhumerus -47.988 13.9576 -83.8867
rradius 37.3373
rwrist -8.19154
rhand -27.9459 -25.4162
rfingers 7.12502
rthumb -1.33369 -55.3918
lclavicle -5.50634e-014 3.97569e-015
lhumerus -42.4619 -2.14542 76.643
lradius 36.6787
lwrist -6.72899
lhand -31.5942 41.79
lfingers 7.12502
lthumb -4.85691 71.7144
rfemur -8.80791 16.5949 12.3646
rtibia 7.09864
rfoot -22.0683 -14.8448
rtoes 4.87955
lfemur 2.54382 -42.9824 -33.2342
ltibia -4.72581
lfoot -48.383 7.37985
ltoes -16.5629
6
root 3.11787 15.981 5.47741 -169.537 -48.015 178.99
lowerback 7.60449 3.77026 0.164899
upperback -9.90302 4.57494 -1.55337
thorax -15.0981 1.83669 -2.71068
lowerneck -19.334 3.2452 3.30906
upperneck 35.9769 0.968148 2.9619
head 16.1124 0.760783 0.737214
rclavicle 1.44616e-014 1.76918e-014
rhumerus -47.5049 14.7957 -84.5052
rradius 38.1434
rwrist -8.27261
rhand -25.7432 -23.793
rfingers 7.12502
rthumb 0.79373 -53.7713
lclavicle 1.44616e-014 1.76918e-014
lhumerus -43.0487 -1.29983 75.7001
lradius 36.02
lwrist -6.13663
lhand -31.4843 39.3981
lfingers 7.12502
lthumb -4.75076 69.3248
rfemur -9.16128 16.356 12.432
rtibia 7.28592
rfoot -21.6212 -14.0973
rtoes 3.92628
lfemur 2.48676 -42.8557 -33.0829
ltibia -4.68759
lfoot -48.6043 6.87923
ltoes -15.7355
7
root 3.11991 15.9805 5.47824 -169.654 -47.5457 179.221
lowerback 7.76134 3.92812 0.332457
upperback -9.93539 4.81993 -1.53247
thorax -15.2159 1.93028 -2.84379
lowerneck -19.2174 3.02745 3.23832
upperneck 35.7983 0.820402 2.63365
head 15.9927 0.643421 0.574974
rclavicle -9.78021e-014 -1.82882e-014
rhumerus -47.1173 15.6408 -85.0716
rradius 38.9129
rwrist -8.3953
rhand -25.6842 -24.0415
rfingers 7.12502
rthumb 0.850723 -54.0195
lclavicle -9.78021e-014 -1.82882e-014
lhumerus -43.8704 -0.471632 74.7397
lradius 35.5173
lwrist -5.71009
lhand -30.4268 38.1205
lfingers 7.12502
lthumb -3.7296 68.0676
rfemur -9.58758 16.3396 12.5423
rtibia 7.56071
rfoot -21.3438 -13.3245
rtoes 3.2239
lfemur 2.40863 -42.6785 -32.8453
ltibia -4.68426
lfoot -48.9442 7.17252
ltoes -16.3275
8
root 3.12168 15.9805 5.47666 -169.765 -47.1531 179.4
lowerback 7.99818 4.04473 0.474233
upperback -9.99262 5.00508 -1.5062
thorax -15.4206 1.9949 -2.95401
lowerneck -19.3884 3.05633 3.30302
upperneck 35.8312 0.917785 2.43958
head 16.0512 0.669266 0.50194
rclavicle 3.72721e-016 -2.98177e-015
rhumerus -46.7481 16.4671 -85.6221
rradius 39.4648
rwrist -8.53768
rhand -25.7526 -23.9313
rfingers 7.12502
rthumb 0.784716 -53.9096
lclavicle 3.72721e-016 -2.98177e-015
lhumerus -44.6543 0.390854 73.673
lradius 34.9191
lwrist -5.79509
lhand -28.9629 36.9755
lfingers 7.12502
lthumb -2.3159 66.9427
rfemur -9.91369 16.4358 12.639
rtibia 7.80274
rfoot -21.3478 -12.766
rtoes 2.97941
lfemur 2.3909 -42.633 -32.6866
ltibia -4.64238
lfoot -49.4133 7.45364
ltoes -16.941
9
root 3.12057 15.9797 5.47504 -169.769 -46.7769 179.436
lowerback 8.11618 4.14472 0.544362
upperback -10.0032 5.15763 -1.48427
thorax -15.4987 2.05712 -3.01063
lowerneck -19.5234 3.08364 3.27653
upperneck 35.889 1.00118 2.34888
head 16.112 0.689277 0.486126
rclavicle -5.27773e-014 1.64991e-014
rhumerus -46.3261 17.2913 -86.0956
rradius 39.8967
rwrist -8.52394
rhand -25.7204 -23.6856
rfingers 7.12502
rthumb 0.815763 -53.6638
lclavicle -5.27773e-014 1.64991e-014
lhumerus -45.2625 1.34549 72.539
lradius 34.0961
lwrist -5.95097
lhand -27.4298 35.7761
lfingers 7.12502
lthumb -0.835184 65.7542
rfemur -10.1435 16.4753 12.6249
rtibia 7.95006
rfoot -21.4151 -12.3575
rtoes 3.11355
lfemur 2.46316 -42.9439 -32.7468
ltibia -4.53809
lfoot -50.0125 7.07349
ltoes -16.0075
10
root 3.11938 15.9806 5.47384 -169.718 -46.412 179.368
lowerback 8.21841 4.28636 0.598529
upperback -10.0178 5.35631 -1.52132
thorax -15.5647 2.13805 -3.13302
lowerneck -19.3864 2.96591 2.99407
upperneck 35.9638 0.851448 2.50773
head 16.1104 0.603189 0.572661
rclavicle -6.19214e-014 6.4605e-015
rhumerus -45.9973 17.8756 -86.4649
rradius 40.3159
rwrist -8.28801
rhand -25.7892 -23.9193
rfingers 7.12502
rthumb 0.749343 -53.8977
lclavicle -6.19214e-014 6.4605e-015
lhumerus -45.8392 2.07634 71.4405
lradius 33.2719
lwrist -5.99191
lhand -25.9345 34.8408
lfingers 7.12502
lthumb 0.608989 64.8196
rfemur -10.2702 16.4299 12.5346
rtibia 7.9567
rfoot -21.2251 -12.0197
rtoes 2.7721
lfemur 2.55529 -43.1127 -32.897
ltibia -4.45523
lfoot -50.3782 6.87657
ltoes -15.328
11
root 3.11958 15.982 5.4716 -169.767 -46.1134 179.434
lowerback 8.35549 4.42174 0.709937
upperback -10.0603 5.56072 -1.51591
thorax -15.6854 2.21542 -3.24634
lowerneck -19.4306 2.89182 3.01
upperneck 36.1106 0.78331 2.32708
head 16.1955 0.546845 0.479267
rclavicle 3.52594e-014 6.4605e-015
rhumerus -45.7124 18.4415 -86.785
rradius 40.5851
rwrist -7.9403
rhand -26.3013 -24.873
rfingers 7.12502
rthumb 0.254754 -54.8526
lclavicle 3.52594e-014 6.4605e-015
lhumerus -46.3505 2.92825 70.2732
lradius 32.2579
lwrist -6.413
lhand -22.3048 34.014
lfingers 7.12502
lthumb 4.11442 63.954
rfemur -10.3955 16.409 12.5673
rtibia 7.96636
rfoot -20.9733 -11.6984
rtoes 1.93247
lfemur 2.62445 -43.1843 -32.8923
ltibia -4.43224
lfoot -50.7903 6.99385
ltoes -15.6133
